<svg id="Layer_1" data-name="Layer 1" xmlns="http://www.w3.org/2000/svg" viewBox="0 0 622.81 128.2" style="background-color:#67C04D"><defs><style>.cls-1{fill:#fff;}.cls-2{fill:#bcbe00;}</style></defs><title>Jasmin_logo_White_Greendots</title><path class="cls-1" d="M187.88,235.8c-4.93,0-8.21,3.29-8.21,8v77c0,20.63-13.51,26.65-25.56,26.65-14.78,0-20.81-7.85-25.55-17.89-1.82-3.83-4-5.84-7.12-5.84-3.65,0-8.58,2.74-8.58,8.22,0,1.64.91,4.74,2.56,8,5.66,10.77,15.69,23.54,38.33,23.54,22.27,0,42.34-13.32,42.34-42.71v-77A7.81,7.81,0,0,0,187.88,235.8Z" transform="translate(-112.86 -235.37)"/><path class="cls-1" d="M279,243.65c-2.19-4.92-5.11-7.85-10-7.85-4.74,0-7.48,2.93-9.67,7.85l-42.9,102.4c-2.19,4.93-2.73,6.57-2.73,8.58,0,4.38,3.65,7.12,8,7.12,3.65,0,5.84-1.28,7.48-5.3l10.77-26.64H297.2l9.31,23c2.56,6.76,4.75,8.95,9.13,8.95,4.74,0,8.76-2.92,8.76-7.85,0-1.46-.55-3.29-2.74-7.85Zm-33.58,72.28,23.36-57.49,23,57.49Z" transform="translate(-112.86 -235.37)"/><path class="cls-1" d="M554.27,235.8c-3.65,0-6.57,2-9.67,7.67l-42,73.92-42-73.92c-2.92-5.47-5.3-7.67-9.68-7.67-5.47,0-8.94,3.29-8.94,8.95v109c0,4.75,3.28,8,8.21,8a7.82,7.82,0,0,0,8.22-8v-84.5l36.32,65.52c2,3.65,4.2,5.3,7.12,5.3,3.47,0,5.29-1.65,7.3-5.3l37.23-66.25V353.9c0,4.75,3.47,8,8.22,8,4.92,0,8.21-3.28,8.21-8V244.75C562.85,238.73,559.2,235.8,554.27,235.8Z" transform="translate(-112.86 -235.37)"/><path class="cls-1" d="M601.71,235.8c-4.93,0-8.21,3.29-8.21,8V353.71c0,4.75,3.28,8,8.21,8a7.82,7.82,0,0,0,8.22-8V243.84A7.82,7.82,0,0,0,601.71,235.8Z" transform="translate(-112.86 -235.37)"/><path class="cls-1" d="M727.46,236c-4.74,0-8.21,2.92-8.21,7.85v86l-63.88-90c-2-2.92-4.39-4-7.12-4-5.66,0-7.85,4-7.85,9.68V353.71c0,4.94,3.47,8,8.21,8s8.22-3.1,8.22-8V269.57l63.52,88.16c2.19,2.92,4.38,4,7.66,4,4.93,0,7.67-3.29,7.67-8V243.84C735.68,238.91,732,236,727.46,236Z" transform="translate(-112.86 -235.37)"/><path class="cls-1" d="M351.69,271.4a21,21,0,0,1,33.46-17,16.82,16.82,0,0,1,9.19-11.83,36,36,0,1,0-30,63.83l8.42-14h0A21.07,21.07,0,0,1,351.69,271.4Z" transform="translate(-112.86 -235.37)"/><circle class="cls-2" cx="289.53" cy="23.15" r="11.68"/><path class="cls-1" d="M391.7,292.37l-8.18,13.57a21,21,0,0,1-2.14,42,20.85,20.85,0,0,1-11.14-3.21,17.05,17.05,0,0,1-2.73,6.05,16.82,16.82,0,0,1-6.84,5.57,36,36,0,1,0,31-64Z" transform="translate(-112.86 -235.37)"/><circle class="cls-2" cx="240.2" cy="105.56" r="11.68"/><path class="cls-1" d="M363.2,328.09" transform="translate(-112.86 -235.37)"/></svg>